{"title":"Taylor Swift Ft. Ed Sheeran - Everything Has Changed [Music Vide","uid":8904396,"size":45765036,"categoryP":"video","categoryS":"music_videos","magnet":"?xt=urn:btih:520d7d6d49f120422b2f2c247084210853cc190b&amp;dn=Taylor+Swift+Ft.+Ed+Sheeran+-+Everything+Has+Changed+%5BMusic+Vide&amp;tr=udp%3A%2F%2Ftracker.openbittorrent.com%3A80&amp;tr=udp%3A%2F%2Fopen.demonii.com%3A1337&amp;tr=udp%3A%2F%2Ftracker.coppersurfer.tk%3A6969&amp;tr=udp%3A%2F%2Fexodus.desync.com%3A6969","seeders":2,"leechers":0,"uploader":"Sbyky","files":1,"time":1378875627,"description":"[IMG]http://yuq.me/users/18/139/zua5EykcqU.png[/IMG]\n\nGeneral\nComplete name                            : Taylor Swift Ft. Ed Sheeran - Everything Has Changed [Music Video] 720p [Sbyky].mp4\nFormat                                   : MPEG-4\nFormat profile                           : Base Media / Version 2\nCodec ID                                 : mp42\nFile size                                : 43.6 MiB\nDuration                                 : 4mn 11s\nOverall bit rate mode                    : Variable\nOverall bit rate                         : 1 453 Kbps\nEncoded date                             : UTC 2013-06-07 06:37:37\nTagged date                              : UTC 2013-06-07 06:37:37\n\nVideo\nID                                       : 1\nFormat                                   : AVC\nFormat/Info                              : Advanced Video Codec\nFormat profile                           : &lt;a class=&quot;__cf_email__&quot; href=&quot;/cdn-cgi/l/email-protection&quot; data-cfemail=&quot;a8e0c1cfc0e8e49b8699&quot;&gt;[email&amp;#160;protected]&lt;/a&gt;&lt;script cf-hash='f9e31' type=&quot;text/javascript&quot;&gt;\n/* &lt;![CDATA[ */!function(){try{var t=&quot;currentScript&quot;in document?document.currentScript:function(){for(var t=document.getElementsByTagName(&quot;script&quot;),e=t.length;e--;)if(t[e].getAttribute(&quot;cf-hash&quot;))return t[e]}();if(t&amp;&amp;t.previousSibling){var e,r,n,i,c=t.previousSibling,a=c.getAttribute(&quot;data-cfemail&quot;);if(a){for(e=&quot;&quot;,r=parseInt(a.substr(0,2),16),n=2;a.length-n;n+=2)i=parseInt(a.substr(n,2),16)^r,e+=String.fromCharCode(i);e=document.createTextNode(e),c.parentNode.replaceChild(e,c)}}}catch(u){}}();/* ]]&gt; */&lt;/script&gt;\nFormat settings, CABAC                   : Yes\nFormat settings, ReFrames                : 1 frame\nCodec ID                                 : avc1\nCodec ID/Info                            : Advanced Video Coding\nDuration                                 : 4mn 11s\nBit rate                                 : 1 259 Kbps\nMaximum bit rate                         : 7 846 Kbps\nWidth                                    : 1 280 pixels\nHeight                                   : 720 pixels\nDisplay aspect ratio                     : 16:9\nFrame rate mode                          : Constant\nFrame rate                               : 24.000 fps\nColor space                              : YUV\nChroma subsampling                       : 4:2:0\nBit depth                                : 8 bits\nScan type                                : Progressive\nBits/(Pixel*Frame)                       : 0.057\nStream size                              : 37.8 MiB (87%)\nTagged date                              : UTC 2013-06-07 06:37:43\n\nAudio\nID                                       : 2\nFormat                                   : AAC\nFormat/Info                              : Advanced Audio Codec\nFormat profile                           : LC\nCodec ID                                 : 40\nDuration                                 : 4mn 11s\nBit rate mode                            : Variable\nBit rate                                 : 192 Kbps\nMaximum bit rate                         : 203 Kbps\nChannel(s)                               : 2 channels\nChannel positions                        : Front: L R\nSampling rate                            : 44.1 KHz\nCompression mode                         : Lossy\nStream size                              : 5.77 MiB (13%)\nTitle                                    : IsoMedia File Produced by Google, 5-11-2011\nEncoded date                             : UTC 2013-06-07 06:37:40\nTagged date                              : UTC 2013-06-07 06:37:43\n\nShared By Sbyky\n[IMG]http://yuq.me/users/18/139/0aq32UMZvX.gif[/IMG]\n[IMG]http://yuq.me/users/18/139/bQg62viaEG.gif[/IMG]","torrent":{"xt":"urn:btih:520d7d6d49f120422b2f2c247084210853cc190b","amp;dn":"Taylor+Swift+Ft.+Ed+Sheeran+-+Everything+Has+Changed+%5BMusic+Vide","amp;tr":["udp%3A%2F%2Ftracker.openbittorrent.com%3A80","udp%3A%2F%2Fopen.demonii.com%3A1337","udp%3A%2F%2Ftracker.coppersurfer.tk%3A6969","udp%3A%2F%2Fexodus.desync.com%3A6969"],"infoHash":"520d7d6d49f120422b2f2c247084210853cc190b","infoHashBuffer":{"type":"Buffer","data":[82,13,125,109,73,241,32,66,43,47,44,36,112,132,33,8,83,204,25,11]},"announce":[],"urlList":[]}}